# xmcd
#
# Track frame offsets:
#	150
#	9665
#	21140
#	34282
#	43675
#	57215
#	68417
#	82737
#	92380
#	104550
#	117765
#	128182
#	144357
#	153150
#	162985
#	169490
#	184827
#	197035
#
# Disc length: 2766 seconds
#
# Revision: 1
# Processed by: cddbd v1.5.2PL0 Copyright (c) Steve Scherf et al.
# Submitted via: EZCDAudioConverter 9.0.6.1
#
DISCID=e50acc12
DTITLE=The Best Country Dance Album On Earth: Volume 1
DYEAR=2011
DGENRE=Country
TTITLE0=Tex Ritter - Froggy Went A Courtin'
TTITLE1=George Jones - White Lightnin'
TTITLE2=Big Red Savage - Cowboys and Injuns
TTITLE3=Rusty Draper - I'm A Ramblin' Man
TTITLE4=Merle Haggard - Games People Play
TTITLE5=Faron Young - Wine Me Up (Live)
TTITLE6=Freddy Fender - Jambalaya (Live)
TTITLE7=Merle Haggard - Take Me Back To Tulsa (Live)
TTITLE8=Patty Loveless - Lonely Days, Lonely Nights (Live)
TTITLE9=Kathy Mattea - Ball and Chain (Live)
TTITLE10=Merle Haggard - Ida Red (Live)
TTITLE11=The Bellamy Brothers - Redneck Girl (Live)
TTITLE12=Johnny Paycheck - The Johnsons Of Turkey Ridge
TTITLE13=Gunner Thompson - Teamster Plan
TTITLE14=The Oak Ridge Boys - Victory Is Coming
TTITLE15=Merle Haggard - San Antonio Rose (Live)
TTITLE16=Lynn Anderson - I Never Promised You A Rose Garden (Live)
TTITLE17=The Bellamy Brothers - Let Your Love Flow (Live)
EXTD=
EXTT0=
EXTT1=
EXTT2=
EXTT3=
EXTT4=
EXTT5=
EXTT6=
EXTT7=
EXTT8=
EXTT9=
EXTT10=
EXTT11=
EXTT12=
EXTT13=
EXTT14=
EXTT15=
EXTT16=
EXTT17=
PLAYORDER=
